<svg width="660" height="513" viewBox="0 0 660 513" fill="none" xmlns="http://www.w3.org/2000/svg">
<line x1="393.073" y1="271.667" x2="303.651" y2="271.667" stroke="#FF5300" stroke-width="2"/>
<line x1="294.926" y1="284.462" x2="264.392" y2="284.462" stroke="#FF5300" stroke-width="2"/>
<line x1="393.073" y1="302.178" x2="303.651" y2="302.178" stroke="#FF5300" stroke-width="2"/>
<path d="M391.437 341.532L344 341.532M317.282 341.532L299.289 341.532" stroke="#FF5300" stroke-width="2"/>
<path d="M252.396 244.092V302.162M406.159 244.092V262.055V280.017M406.159 303.147V325.784M252.396 362.201V342.27" stroke="#FF5300" stroke-width="2" stroke-miterlimit="10"/>
<path fill-rule="evenodd" clip-rule="evenodd" d="M374.382 64.0875C332.708 73.2818 287.079 96.845 247.423 132.637C222.861 154.805 203.492 179.046 189.886 203.23L194.169 205.091L184.629 210.962L183.766 200.57L188.083 202.446C201.791 178.073 221.294 153.666 246.008 131.361C285.88 95.3744 331.822 71.619 373.907 62.334C415.972 53.0535 454.364 58.2044 478.849 80.3026C510.702 109.052 510.785 159.012 485.179 210.016L483.357 209.271C508.837 158.518 508.397 109.525 477.434 81.579C453.634 60.0978 416.077 54.8886 374.382 64.0875ZM459.428 239.647L469.616 234.742L469.229 245.158L465.163 242.872C453.383 259.253 439.027 275.335 422.278 290.452C384.171 324.846 340.521 348.065 299.994 358.16C259.874 368.153 222.66 365.311 196.997 347.5L193.785 350.762L190.145 340.872L201.455 342.972L198.329 346.147C223.306 363.414 259.736 366.314 299.462 356.42C339.609 346.42 382.964 323.382 420.864 289.176C437.507 274.154 451.767 258.181 463.465 241.917L459.428 239.647Z" fill="#293972"/>
<path d="M421.571 289.814C342.042 361.592 238.43 384.452 190.145 340.872C165.777 318.879 160.158 284.169 170.79 245.953" stroke="#293972" stroke-width="2"/>
<path d="M406.159 137.794H252.396V164.368H406.159V137.794Z" stroke="#FF5300" stroke-width="2" stroke-miterlimit="10"/>
<path d="M406.159 164.368H252.396V190.943H406.159V164.368Z" stroke="#FF5300" stroke-width="2" stroke-miterlimit="10"/>
<path d="M406.159 190.943H252.396V217.517H406.159V190.943Z" stroke="#FF5300" stroke-width="2" stroke-miterlimit="10"/>
<path d="M331.459 244.092H406.159V217.517H252.396V244.092H282.931" stroke="#FF5300" stroke-width="2" stroke-miterlimit="10"/>
<line x1="294.927" y1="257.887" x2="264.392" y2="257.887" stroke="#FF5300" stroke-width="2"/>
<line x1="393" y1="151.726" x2="280" y2="151.726" stroke="#FF5300" stroke-width="2"/>
<line x1="370" y1="125.552" x2="280" y2="125.552" stroke="#FF5300" stroke-width="2"/>
<line x1="393" y1="177.9" x2="280" y2="177.9" stroke="#FF5300" stroke-width="2"/>
<line x1="393" y1="204.976" x2="280" y2="204.976" stroke="#FF5300" stroke-width="2"/>
<line x1="393.073" y1="231.313" x2="303.651" y2="231.313" stroke="#FF5300" stroke-width="2"/>
<path d="M279.659 321.601L263.301 321.601" stroke="#FF5300" stroke-width="2"/>
<path d="M466.425 338.839L477.918 335.36L468.834 328.116L466.425 338.839ZM409.112 130.636C446.92 164.76 472.412 203.785 483.528 239.942C494.651 276.121 491.349 309.28 471.849 331.87L473.505 333.034C493.568 309.793 496.772 275.932 485.551 239.436C474.324 202.919 448.623 163.616 410.596 129.296L409.112 130.636ZM235.741 287.111C196.09 251.324 169.988 210.149 159.803 172.545C149.614 134.921 155.387 101.044 179.17 79.5777L177.686 78.2376C153.184 100.351 147.479 135.021 157.764 172.995C168.054 210.988 194.379 252.46 234.256 288.451L235.741 287.111ZM179.17 79.5777C202.954 58.1118 240.49 52.9011 282.175 62.098C323.84 71.29 369.46 94.8485 409.112 130.636L410.596 129.296C370.719 93.3046 324.77 69.5444 282.674 60.2571C240.6 50.9746 202.187 56.124 177.686 78.2376L179.17 79.5777ZM302.326 333.382C279.436 321.602 256.748 306.071 235.741 287.111L234.256 288.451C255.391 307.526 278.227 323.161 301.286 335.029L302.326 333.382Z" fill="#293972"/>
<path d="M178.427 78.9081L166.934 82.3867L176.019 89.6311L178.427 78.9081ZM235.741 287.111C197.932 252.987 172.44 213.962 161.324 177.804C150.201 141.626 153.503 108.466 173.003 85.8772L171.347 84.7125C151.284 107.954 148.08 141.815 159.301 178.311C170.528 214.828 196.229 254.131 234.256 288.451L235.741 287.111ZM409.111 130.636C448.762 166.423 474.864 207.598 485.049 245.202C495.239 282.825 489.465 316.703 465.682 338.169L467.166 339.509C491.668 317.396 497.373 282.726 487.088 244.752C476.798 206.759 450.473 165.287 410.596 129.296L409.111 130.636ZM465.682 338.169C441.898 359.635 404.362 364.846 362.677 355.649C321.013 346.457 275.392 322.898 235.741 287.111L234.256 288.451C274.133 324.442 320.082 348.202 362.178 357.49C404.252 366.772 442.665 361.623 467.166 339.509L465.682 338.169ZM342.526 84.3645C365.417 96.1447 388.104 111.676 409.111 130.636L410.596 129.296C389.461 110.221 366.625 94.5853 343.566 82.7182L342.526 84.3645Z" fill="#293972"/>
<path d="M400.159 111.219H258.396C255.083 111.219 252.396 113.906 252.396 117.219V137.794H406.159V117.219C406.159 113.906 403.473 111.219 400.159 111.219Z" fill="white" stroke="#FF5300" stroke-width="2" stroke-miterlimit="10"/>
<line x1="393" y1="125.552" x2="280" y2="125.552" stroke="#FF5300" stroke-width="2"/>
<rect x="308" y="243.688" width="2" height="8.85818" fill="#293972"/>
<rect x="314" y="247.298" width="1.8051" height="9.81462" transform="rotate(90 314 247.298)" fill="#293972"/>
<rect x="308" y="243.688" width="2" height="8.85818" fill="#293972"/>
<rect x="314" y="247.298" width="1.8051" height="9.81462" transform="rotate(90 314 247.298)" fill="#293972"/>
<rect x="368.814" y="287.011" width="2" height="8.85818" fill="#293972"/>
<rect x="374.814" y="290.621" width="1.8051" height="9.81462" transform="rotate(90 374.814 290.621)" fill="#293972"/>
<rect x="313.814" y="312.282" width="2" height="8.85818" fill="#293972"/>
<rect x="319.814" y="315.892" width="1.8051" height="9.81462" transform="rotate(90 319.814 315.892)" fill="#293972"/>
<path d="M265 127.357C267.11 127.357 269 125.791 269 123.649C269 121.508 267.11 119.942 265 119.942C262.89 119.942 261 121.508 261 123.649C261 125.791 262.89 127.357 265 127.357Z" fill="#FF5300" stroke="white" stroke-width="2"/>
<path d="M265 153.531C267.11 153.531 269 151.965 269 149.823C269 147.682 267.11 146.116 265 146.116C262.89 146.116 261 147.682 261 149.823C261 151.965 262.89 153.531 265 153.531Z" fill="#FF5300" stroke="white" stroke-width="2"/>
<path d="M265 180.607C267.11 180.607 269 179.041 269 176.9C269 174.758 267.11 173.192 265 173.192C262.89 173.192 261 174.758 261 176.9C261 179.041 262.89 180.607 265 180.607Z" fill="#FF5300" stroke="white" stroke-width="2"/>
<path d="M265 206.781C267.11 206.781 269 205.215 269 203.074C269 200.932 267.11 199.366 265 199.366C262.89 199.366 261 200.932 261 203.074C261 205.215 262.89 206.781 265 206.781Z" fill="#FF5300" stroke="white" stroke-width="2"/>
<path d="M265 232.955C267.11 232.955 269 231.389 269 229.248C269 227.106 267.11 225.54 265 225.54C262.89 225.54 261 227.106 261 229.248C261 231.389 262.89 232.955 265 232.955Z" fill="#FF5300" stroke="white" stroke-width="2"/>
<path d="M520 100.086H483C479.134 100.086 476 103.22 476 107.086V139.31C476 143.176 479.134 146.31 483 146.31H520C523.866 146.31 527 143.176 527 139.31V107.086C527 103.22 523.866 100.086 520 100.086Z" fill="#293972" stroke="white" stroke-width="2" stroke-miterlimit="10"/>
<mask id="mask0_6289_2452" style="mask-type:alpha" maskUnits="userSpaceOnUse" x="477" y="101" width="49" height="45">
<path d="M520 101.086H483C479.686 101.086 477 103.772 477 107.086V139.31C477 142.624 479.686 145.31 483 145.31H520C523.314 145.31 526 142.624 526 139.31V107.086C526 103.772 523.314 101.086 520 101.086Z" fill="#293972"/>
</mask>
<g mask="url(#mask0_6289_2452)">
<path d="M495.9 145.942H529.5" stroke="white" stroke-width="2" stroke-miterlimit="10"/>
<path d="M499.05 124.146V120.355H526.35V124.146" stroke="white" stroke-width="2" stroke-miterlimit="10"/>
<path d="M528.45 126.989V124.146H496.95V126.989" stroke="white" stroke-width="2" stroke-miterlimit="10"/>
<path d="M503.25 126.989V124.146" stroke="white" stroke-width="2" stroke-miterlimit="10"/>
<path d="M509.55 126.989V124.146" stroke="white" stroke-width="2" stroke-miterlimit="10"/>
<path d="M515.85 126.989V124.146" stroke="white" stroke-width="2" stroke-miterlimit="10"/>
<path d="M522.15 126.989V124.146" stroke="white" stroke-width="2" stroke-miterlimit="10"/>
<path d="M503.25 126.989C503.25 128.562 501.843 129.832 500.1 129.832C498.357 129.832 496.95 128.562 496.95 126.989" stroke="white" stroke-width="2" stroke-miterlimit="10"/>
<path d="M509.55 126.989C509.55 128.562 508.143 129.832 506.4 129.832C504.657 129.832 503.25 128.562 503.25 126.989" stroke="white" stroke-width="2" stroke-miterlimit="10"/>
<path d="M515.85 126.989C515.85 128.562 514.443 129.832 512.7 129.832C510.957 129.832 509.55 128.562 509.55 126.989" stroke="white" stroke-width="2" stroke-miterlimit="10"/>
<path d="M522.15 126.989C522.15 128.562 520.743 129.832 519 129.832C517.257 129.832 515.85 128.562 515.85 126.989" stroke="white" stroke-width="2" stroke-miterlimit="10"/>
<path d="M528.45 126.989C528.45 128.562 527.043 129.832 525.3 129.832C523.557 129.832 522.15 128.562 522.15 126.989" stroke="white" stroke-width="2" stroke-miterlimit="10"/>
<path d="M499.05 129.832L499.05 145.942" stroke="white" stroke-width="2" stroke-miterlimit="10"/>
<path d="M526.35 129.832L526.35 145.942" stroke="white" stroke-width="2" stroke-miterlimit="10"/>
<path d="M503.25 145.942V133.623H522.15V145.942" stroke="white" stroke-width="2" stroke-miterlimit="10"/>
<path d="M515.85 145.942V133.623" stroke="white" stroke-width="2" stroke-miterlimit="10"/>
</g>
<path d="M172 146.116H135C131.134 146.116 128 149.25 128 153.116V185.34C128 189.206 131.134 192.34 135 192.34H172C175.866 192.34 179 189.206 179 185.34V153.116C179 149.25 175.866 146.116 172 146.116Z" fill="#293972" stroke="white" stroke-width="2" stroke-miterlimit="10"/>
<mask id="mask1_6289_2452" style="mask-type:alpha" maskUnits="userSpaceOnUse" x="128" y="146" width="51" height="47">
<path d="M172 147.116H135C131.686 147.116 129 149.802 129 153.116V185.34C129 188.654 131.686 191.34 135 191.34H172C175.314 191.34 178 188.654 178 185.34V153.116C178 149.802 175.314 147.116 172 147.116Z" fill="#293972" stroke="white" stroke-width="2" stroke-miterlimit="10"/>
</mask>
<g mask="url(#mask1_6289_2452)">
<path d="M185.81 175.426L166.45 166.12L147.091 175.426V178.916H185.81V175.426Z" stroke="white" stroke-width="2" stroke-miterlimit="10"/>
<path d="M163.869 178.916V197.377" stroke="white" stroke-width="2" stroke-miterlimit="10"/>
<path d="M179.356 178.916V197.528" stroke="white" stroke-width="2" stroke-miterlimit="10"/>
<path d="M148.381 178.916V197.528" stroke="white" stroke-width="2" stroke-miterlimit="10"/>
<path d="M158.707 178.916V197.528" stroke="white" stroke-width="2" stroke-miterlimit="10"/>
<path d="M174.194 178.764L174.194 197.377" stroke="white" stroke-width="2" stroke-miterlimit="10"/>
<path d="M169.031 178.916V197.528" stroke="white" stroke-width="2" stroke-miterlimit="10"/>
<path d="M166.45 175.426C167.876 175.426 169.032 174.384 169.032 173.099C169.032 171.814 167.876 170.773 166.45 170.773C165.025 170.773 163.869 171.814 163.869 173.099C163.869 174.384 165.025 175.426 166.45 175.426Z" stroke="white" stroke-width="2" stroke-miterlimit="10"/>
<path d="M153.544 178.916V197.528" stroke="white" stroke-width="2" stroke-miterlimit="10"/>
</g>
<path d="M443 332.041H406C402.134 332.041 399 335.175 399 339.041V371.266C399 375.132 402.134 378.266 406 378.266H443C446.866 378.266 450 375.132 450 371.266V339.041C450 335.175 446.866 332.041 443 332.041Z" fill="#293972" stroke="white" stroke-width="2" stroke-miterlimit="10"/>
<mask id="mask2_6289_2452" style="mask-type:alpha" maskUnits="userSpaceOnUse" x="400" y="333" width="49" height="45">
<path d="M443 333.041H406C402.686 333.041 400 335.727 400 339.041V371.266C400 374.579 402.686 377.266 406 377.266H443C446.314 377.266 449 374.579 449 371.266V339.041C449 335.727 446.314 333.041 443 333.041Z" fill="#293972"/>
</mask>
<g mask="url(#mask2_6289_2452)">
<path d="M450.779 378.01C452.696 376.63 453.32 375.314 453.181 373.963C453.037 372.554 452.599 371.19 452.091 369.62L452.076 369.575C451.384 367.433 450.619 365.07 450.615 362.216C450.613 360.625 450.847 359.075 451.324 357.486C451.634 356.455 452.041 355.428 452.55 354.385L450.465 351.636C449.772 351.856 448.991 352.068 448.137 352.244L448.137 352.244C446.145 352.655 444.148 352.79 442.203 352.642L442.203 352.642C440.425 352.506 438.698 352.133 437.05 351.53C435.401 352.133 433.675 352.506 431.897 352.642L431.897 352.642C429.952 352.79 427.955 352.655 425.963 352.244L425.963 352.244C425.108 352.068 424.327 351.856 423.635 351.636L421.55 354.386C422.059 355.428 422.465 356.455 422.775 357.486L450.779 378.01ZM450.779 378.01L450.741 378.037C448.991 379.285 446.319 380.43 443.191 381.219L443.436 382.189L443.191 381.219C440.472 381.906 438.49 382.722 437.05 383.52C435.609 382.722 433.627 381.906 430.908 381.219C427.781 380.43 425.108 379.285 423.359 378.037C421.412 376.647 420.779 375.323 420.919 373.964L420.919 373.964C421.063 372.554 421.5 371.19 422.009 369.621L422.009 369.62L422.023 369.577C422.716 367.435 423.481 365.071 423.485 362.216L450.779 378.01ZM423.485 362.216C423.487 360.625 423.253 359.075 422.775 357.486L423.485 362.216Z" stroke="white" stroke-width="2"/>
</g>
<path d="M395 64.081C397.761 64.081 400 62.0606 400 59.5683C400 57.076 397.761 55.0555 395 55.0555C392.239 55.0555 390 57.076 390 59.5683C390 62.0606 392.239 64.081 395 64.081Z" fill="white"/>
<path d="M395 64.081C397.761 64.081 400 62.0606 400 59.5683C400 57.076 397.761 55.0555 395 55.0555C392.239 55.0555 390 57.076 390 59.5683C390 62.0606 392.239 64.081 395 64.081Z" stroke="white" stroke-width="8" stroke-miterlimit="10"/>
<path d="M395 64.081C397.761 64.081 400 62.0606 400 59.5683C400 57.076 397.761 55.0555 395 55.0555C392.239 55.0555 390 57.076 390 59.5683C390 62.0606 392.239 64.081 395 64.081Z" stroke="#293972" stroke-width="2" stroke-miterlimit="10"/>
<path d="M437 279.79C439.761 279.79 442 277.77 442 275.278C442 272.785 439.761 270.765 437 270.765C434.239 270.765 432 272.785 432 275.278C432 277.77 434.239 279.79 437 279.79Z" fill="white"/>
<path d="M437 279.79C439.761 279.79 442 277.77 442 275.278C442 272.785 439.761 270.765 437 270.765C434.239 270.765 432 272.785 432 275.278C432 277.77 434.239 279.79 437 279.79Z" stroke="white" stroke-width="8" stroke-miterlimit="10"/>
<path d="M437 279.79C439.761 279.79 442 277.77 442 275.278C442 272.785 439.761 270.765 437 270.765C434.239 270.765 432 272.785 432 275.278C432 277.77 434.239 279.79 437 279.79Z" stroke="#293972" stroke-width="2" stroke-miterlimit="10"/>
<path d="M170 312.282C172.761 312.282 175 310.262 175 307.769C175 305.277 172.761 303.257 170 303.257C167.239 303.257 165 305.277 165 307.769C165 310.262 167.239 312.282 170 312.282Z" fill="white"/>
<path d="M170 312.282C172.761 312.282 175 310.262 175 307.769C175 305.277 172.761 303.257 170 303.257C167.239 303.257 165 305.277 165 307.769C165 310.262 167.239 312.282 170 312.282Z" stroke="white" stroke-width="8" stroke-miterlimit="10"/>
<path d="M170 312.282C172.761 312.282 175 310.262 175 307.769C175 305.277 172.761 303.257 170 303.257C167.239 303.257 165 305.277 165 307.769C165 310.262 167.239 312.282 170 312.282Z" stroke="#293972" stroke-width="2" stroke-miterlimit="10"/>
<path d="M247 61.3734C249.761 61.3734 252 59.353 252 56.8606C252 54.3683 249.761 52.3479 247 52.3479C244.239 52.3479 242 54.3683 242 56.8606C242 59.353 244.239 61.3734 247 61.3734Z" fill="white"/>
<path d="M247 61.3734C249.761 61.3734 252 59.353 252 56.8606C252 54.3683 249.761 52.3479 247 52.3479C244.239 52.3479 242 54.3683 242 56.8606C242 59.353 244.239 61.3734 247 61.3734Z" stroke="white" stroke-width="8" stroke-miterlimit="10"/>
<path d="M247 61.3734C249.761 61.3734 252 59.353 252 56.8606C252 54.3683 249.761 52.3479 247 52.3479C244.239 52.3479 242 54.3683 242 56.8606C242 59.353 244.239 61.3734 247 61.3734Z" stroke="#293972" stroke-width="2" stroke-miterlimit="10"/>
<path d="M330.5 355.604C337.404 355.604 343 350.553 343 344.323C343 338.092 337.404 333.041 330.5 333.041C323.596 333.041 318 338.092 318 344.323C318 350.553 323.596 355.604 330.5 355.604Z" fill="white" stroke="#FF5300" stroke-width="2" stroke-miterlimit="10"/>
<path d="M330.362 347.357C332.295 347.357 333.862 345.942 333.862 344.198C333.862 342.453 332.295 341.039 330.362 341.039C328.429 341.039 326.862 342.453 326.862 344.198C326.862 345.942 328.429 347.357 330.362 347.357Z" fill="#FF5300"/>
</svg>
